<?xml version="1.0" encoding="utf-8"?>
<!-- Generator: Adobe Illustrator 25.2.0, SVG Export Plug-In . SVG Version: 6.00 Build 0)  -->
<svg version="1.1" id="Calque_1" xmlns="http://www.w3.org/2000/svg" xmlns:xlink="http://www.w3.org/1999/xlink" x="0px" y="0px"
	 viewBox="0 0 144 144" style="enable-background:new 0 0 144 144;" xml:space="preserve">
<style type="text/css">
	.st0{fill:#FFFFFF;stroke:#000000;stroke-miterlimit:10;}
	.st1{fill:#FFFFFF;stroke:#FFFFFF;stroke-width:11;stroke-linecap:round;stroke-miterlimit:10;}
	.st2{fill:#FFFFFF;stroke:#000000;stroke-width:5;stroke-linecap:round;stroke-miterlimit:10;}
</style>
<path d="M72,27C38,27,8.1,50.5,0.1,81.4c-0.6,2.4,0.8,4.9,3.2,5.5c2.4,0.6,4.9-0.8,5.5-3.2C15.7,57,42.2,36,72,36s56.3,21,63.2,47.6
	c0.6,2.4,3.1,3.9,5.5,3.2c2.4-0.6,3.9-3.1,3.2-5.5C135.9,50.5,105.9,27,72,27z M72,51c-16,0-29,13-29,29s13,29,29,29s29-13,29-29
	S88,51,72,51z M72,60c11.1,0,20,8.9,20,20s-8.9,20-20,20s-20-8.9-20-20S60.9,60,72,60z"/>
<path class="st0" d="M28.5,10.2"/>
<line class="st1" x1="7.1" y1="18" x2="126.6" y2="126"/>
<line class="st2" x1="7.1" y1="18" x2="126.6" y2="126"/>
</svg>
