<svg xmlns="http://www.w3.org/2000/svg" width="34.923" height="31.886" viewBox="0 0 34.923 31.886">
  <g id="icons8_menu_rounded" transform="translate(0.53 3)" style="mix-blend-mode: normal;isolation: isolate">
    <path id="icons8_documents_folder" d="M4.278,4A2.289,2.289,0,0,0,2,6.278V33.609a2.289,2.289,0,0,0,2.278,2.278H34.645a2.289,2.289,0,0,0,2.278-2.278V9.314a2.289,2.289,0,0,0-2.278-2.278h-20.5c.066,0-.024,0-.209-.214a8.613,8.613,0,0,1-.652-.949,8.527,8.527,0,0,0-.8-1.143A1.836,1.836,0,0,0,11.11,4Zm0,1.518H11.11c-.046,0,.046.005.234.218A8.091,8.091,0,0,1,12,6.681,8.962,8.962,0,0,0,12.79,7.82a1.8,1.8,0,0,0,1.357.735h20.5a.747.747,0,0,1,.759.759v1.661a2.228,2.228,0,0,0-.759-.142H4.278a2.228,2.228,0,0,0-.759.142v-4.7A.747.747,0,0,1,4.278,5.518Zm0,6.833H34.645a.747.747,0,0,1,.759.759v20.5a.747.747,0,0,1-.759.759H4.278a.747.747,0,0,1-.759-.759V13.11A.747.747,0,0,1,4.278,12.351Zm8.351,2.278V32.09H26.294V19.931l-5.163-5.3Zm1.518,1.518h5.314v5.314h5.314v9.11H14.147Zm6.833.5,3.207,3.293H20.98Z" transform="translate(-2.53 -7)"/>
  </g>
</svg>
