<svg xmlns="http://www.w3.org/2000/svg" width="29.202" height="31.65" viewBox="0 0 29.202 31.65">
  <path id="icons8_open_in_popup" d="M8.281,2A4.886,4.886,0,0,0,3.4,6.877V25.164l2.438-2.438V6.877A2.443,2.443,0,0,1,8.281,4.438H25.349a2.443,2.443,0,0,1,2.438,2.438V26.383a2.443,2.443,0,0,1-2.438,2.438H11.939L9.5,31.259H25.349a4.886,4.886,0,0,0,4.877-4.877V6.877A4.886,4.886,0,0,0,25.349,2ZM9.415,16.63l3.448,3.448L1.023,31.916,2.738,33.65,14.586,21.8l3.448,3.448V16.63Z" transform="translate(-1.023 -2)"/>
</svg>
